<svg width="24" height="24" viewBox="0 0 24 24" fill="none" xmlns="http://www.w3.org/2000/svg">
<g clip-path="url(#clip0_32_365)">
<path d="M18 4C18.7956 4 19.5587 4.31607 20.1213 4.87868C20.6839 5.44129 21 6.20435 21 7V15C21 15.7956 20.6839 16.5587 20.1213 17.1213C19.5587 17.6839 18.7956 18 18 18H13L8 21V18H6C5.20435 18 4.44129 17.6839 3.87868 17.1213C3.31607 16.5587 3 15.7956 3 15V7C3 6.20435 3.31607 5.44129 3.87868 4.87868C4.44129 4.31607 5.20435 4 6 4H18Z" stroke="#202224" stroke-width="1.5" stroke-linecap="round" stroke-linejoin="round"/>
<path d="M9.5 9H9.51" stroke="#202224" stroke-width="1.5" stroke-linecap="round" stroke-linejoin="round"/>
<path d="M14.5 9H14.51" stroke="#202224" stroke-width="1.5" stroke-linecap="round" stroke-linejoin="round"/>
<path d="M9.5 13C9.82588 13.3326 10.2148 13.5968 10.6441 13.7772C11.0734 13.9576 11.5344 14.0505 12 14.0505C12.4656 14.0505 12.9266 13.9576 13.3559 13.7772C13.7852 13.5968 14.1741 13.3326 14.5 13" stroke="#202224" stroke-width="1.5" stroke-linecap="round" stroke-linejoin="round"/>
</g>
<defs>
<clipPath id="clip0_32_365">
<rect width="24" height="24" fill="white"/>
</clipPath>
</defs>
</svg>
