<svg width="456" height="95" viewBox="0 0 456 95" fill="none" xmlns="http://www.w3.org/2000/svg">
<path d="M406.539 72.069V39.9H416.236V47.7621H415.58C416.105 45.1414 417.24 43.1322 418.987 41.7345C420.778 40.2931 423.137 39.4632 426.063 39.2448L428.946 39.0483L429.536 47.369L423.967 47.9586C421.477 48.177 419.621 48.8977 418.398 50.1207C417.218 51.3437 416.629 53.1127 416.629 55.4276V72.069H406.539Z" fill="#1E1E1E"/>
<path d="M387.288 72.7897C383.488 72.7897 380.212 72.1126 377.461 70.7586C374.753 69.3609 372.656 67.4172 371.171 64.9276C369.73 62.3943 369.009 59.4241 369.009 56.0172C369.009 52.6977 369.708 49.7931 371.106 47.3034C372.503 44.7701 374.447 42.8046 376.937 41.4069C379.47 39.9655 382.331 39.2448 385.519 39.2448C388.664 39.2448 391.372 39.9218 393.643 41.2759C395.915 42.5862 397.662 44.4644 398.885 46.9103C400.152 49.3563 400.785 52.2609 400.785 55.6241V58.1138H377.133V53.0035H393.643L392.595 53.9207C392.595 51.2563 392.006 49.2471 390.826 47.8931C389.691 46.4954 388.053 45.7966 385.912 45.7966C384.296 45.7966 382.92 46.1678 381.785 46.9103C380.649 47.6529 379.776 48.723 379.164 50.1207C378.553 51.5184 378.247 53.2 378.247 55.1655V55.6897C378.247 57.9172 378.574 59.7517 379.23 61.1931C379.929 62.5908 380.955 63.6391 382.309 64.3379C383.707 65.0368 385.432 65.3862 387.485 65.3862C389.232 65.3862 391.001 65.1241 392.792 64.6C394.583 64.0759 396.199 63.2678 397.64 62.1759L400.261 68.7931C398.645 70.0161 396.657 70.9988 394.299 71.7414C391.984 72.4402 389.647 72.7897 387.288 72.7897Z" fill="#1E1E1E"/>
<path d="M345.851 72.069L331.831 39.9H342.248L351.289 62.9621H349.193L358.627 39.9H368.389L354.172 72.069H345.851Z" fill="#1E1E1E"/>
<path d="M311.077 72.7897C308.719 72.7897 306.6 72.331 304.722 71.4138C302.844 70.4965 301.381 69.2517 300.333 67.6793C299.284 66.1069 298.76 64.3379 298.76 62.3724C298.76 60.0138 299.372 58.1575 300.595 56.8034C301.818 55.4057 303.805 54.423 306.557 53.8552C309.308 53.2437 312.956 52.9379 317.498 52.9379H320.971V58.0483H317.564C315.86 58.0483 314.419 58.1138 313.239 58.2448C312.104 58.3759 311.165 58.6161 310.422 58.9655C309.68 59.2713 309.134 59.6644 308.784 60.1448C308.479 60.6253 308.326 61.2368 308.326 61.9793C308.326 63.2023 308.741 64.2069 309.57 64.9931C310.444 65.7793 311.689 66.1724 313.305 66.1724C314.572 66.1724 315.685 65.8885 316.646 65.3207C317.651 64.7092 318.437 63.9012 319.005 62.8966C319.573 61.8483 319.857 60.669 319.857 59.3586V51.8241C319.857 49.9023 319.42 48.5483 318.546 47.7621C317.673 46.9322 316.188 46.5172 314.091 46.5172C312.344 46.5172 310.488 46.8012 308.522 47.369C306.6 47.8931 304.679 48.7011 302.757 49.7931L300.071 43.1759C301.206 42.3897 302.582 41.7126 304.198 41.1448C305.858 40.5333 307.583 40.0747 309.374 39.769C311.165 39.4195 312.868 39.2448 314.484 39.2448C317.848 39.2448 320.599 39.7471 322.739 40.7517C324.923 41.7126 326.561 43.2195 327.653 45.2724C328.745 47.2816 329.291 49.8805 329.291 53.069V72.069H320.053V65.5828H320.512C320.25 67.0678 319.682 68.3563 318.808 69.4483C317.979 70.4966 316.908 71.3264 315.598 71.9379C314.288 72.5057 312.781 72.7897 311.077 72.7897Z" fill="#1E1E1E"/>
<path d="M275.592 72.7897C273.189 72.7897 270.853 72.5713 268.581 72.1345C266.354 71.7414 264.279 71.1736 262.357 70.431C260.435 69.6448 258.754 68.7276 257.312 67.6793L260.261 59.6862C261.658 60.6471 263.165 61.477 264.781 62.1759C266.397 62.8747 268.123 63.4207 269.957 63.8138C271.792 64.1632 273.67 64.3379 275.592 64.3379C278.78 64.3379 281.051 63.8575 282.405 62.8966C283.759 61.892 284.436 60.6471 284.436 59.1621C284.436 58.3322 284.218 57.6115 283.781 57C283.388 56.3885 282.711 55.8644 281.75 55.4276C280.833 54.9471 279.566 54.554 277.95 54.2483L270.547 52.6759C266.354 51.8023 263.231 50.3172 261.178 48.2207C259.169 46.0805 258.164 43.2851 258.164 39.8345C258.164 36.8644 258.95 34.2874 260.523 32.1035C262.139 29.9195 264.345 28.2161 267.14 26.9931C269.979 25.7701 273.233 25.1586 276.902 25.1586C279.042 25.1586 281.095 25.377 283.061 25.8138C285.026 26.2069 286.839 26.7966 288.499 27.5828C290.158 28.369 291.6 29.308 292.823 30.4L289.874 37.869C288.127 36.4713 286.162 35.423 283.978 34.7241C281.794 33.9816 279.413 33.6104 276.836 33.6104C275.002 33.6104 273.43 33.8506 272.119 34.331C270.853 34.8115 269.87 35.4885 269.171 36.3621C268.516 37.2356 268.188 38.2402 268.188 39.3759C268.188 40.6425 268.647 41.669 269.564 42.4552C270.481 43.2414 272.076 43.8747 274.347 44.3552L281.75 45.9276C286.031 46.8448 289.219 48.3299 291.316 50.3828C293.412 52.392 294.461 55.0563 294.461 58.3759C294.461 61.2586 293.674 63.792 292.102 65.9759C290.573 68.1161 288.389 69.7977 285.55 71.0207C282.755 72.2 279.435 72.7897 275.592 72.7897Z" fill="#1E1E1E"/>
<path d="M229.296 72.7897C224.71 72.7897 221.303 71.6759 219.075 69.4483C216.848 67.2207 215.734 63.9448 215.734 59.6207V47.3034H209.641V39.9H215.734V30.4655H225.627V39.9H235.127V47.3034H225.627V59.2276C225.627 61.0621 226.042 62.4379 226.872 63.3552C227.745 64.2724 229.121 64.731 230.999 64.731C231.567 64.731 232.157 64.6655 232.768 64.5345C233.424 64.4035 234.122 64.2287 234.865 64.0103L236.306 71.2172C235.389 71.6977 234.297 72.069 233.031 72.331C231.764 72.6368 230.519 72.7897 229.296 72.7897Z" fill="#1E1E1E"/>
<path d="M193.897 72.7897C192.019 72.7897 190.206 72.6368 188.459 72.331C186.712 72.0253 185.117 71.6103 183.676 71.0862C182.235 70.5621 180.968 69.9069 179.876 69.1207L182.235 62.7C183.327 63.3552 184.506 63.9448 185.773 64.469C187.083 64.9494 188.437 65.3207 189.835 65.5828C191.232 65.8448 192.608 65.9759 193.962 65.9759C195.84 65.9759 197.194 65.692 198.024 65.1241C198.898 64.5126 199.335 63.7264 199.335 62.7655C199.335 61.892 199.051 61.2368 198.483 60.8C197.915 60.3632 197.085 60.0575 195.993 59.8828L189.114 58.6379C186.406 58.1575 184.309 57.1747 182.824 55.6897C181.383 54.1609 180.662 52.2172 180.662 49.8586C180.662 47.6747 181.274 45.7966 182.497 44.2241C183.72 42.608 185.401 41.3851 187.542 40.5552C189.725 39.6816 192.193 39.2448 194.945 39.2448C196.517 39.2448 198.046 39.3759 199.531 39.6379C201.016 39.9 202.414 40.2931 203.724 40.8172C205.078 41.3414 206.28 42.0402 207.328 42.9138L204.838 49.269C204.008 48.6138 203.025 48.046 201.89 47.5655C200.754 47.0851 199.597 46.7138 198.417 46.4517C197.238 46.146 196.124 45.9931 195.076 45.9931C193.111 45.9931 191.691 46.3207 190.817 46.9759C189.944 47.5874 189.507 48.3736 189.507 49.3345C189.507 50.077 189.747 50.7103 190.228 51.2345C190.752 51.7149 191.538 52.0425 192.586 52.2172L199.466 53.4621C202.305 53.9425 204.467 54.9034 205.952 56.3448C207.437 57.7425 208.179 59.6644 208.179 62.1103C208.179 64.3379 207.59 66.2598 206.411 67.8759C205.231 69.4483 203.571 70.6713 201.431 71.5448C199.291 72.3747 196.78 72.7897 193.897 72.7897Z" fill="#1E1E1E"/>
<path d="M158.461 72.7897C155.01 72.7897 151.996 72.1126 149.419 70.7586C146.886 69.4046 144.92 67.4609 143.523 64.9276C142.125 62.3943 141.426 59.4023 141.426 55.9517C141.426 52.5011 142.125 49.531 143.523 47.0414C144.92 44.5517 146.886 42.6299 149.419 41.2759C151.996 39.9218 155.01 39.2448 158.461 39.2448C161.911 39.2448 164.903 39.9218 167.437 41.2759C170.014 42.6299 172.001 44.5736 173.399 47.1069C174.84 49.5966 175.561 52.5448 175.561 55.9517C175.561 59.4023 174.84 62.3943 173.399 64.9276C172.001 67.4609 170.014 69.4046 167.437 70.7586C164.903 72.1126 161.911 72.7897 158.461 72.7897ZM158.461 65.3862C160.601 65.3862 162.326 64.6218 163.637 63.0931C164.947 61.5207 165.602 59.1402 165.602 55.9517C165.602 52.7632 164.947 50.4264 163.637 48.9414C162.326 47.4126 160.601 46.6483 158.461 46.6483C156.364 46.6483 154.661 47.4126 153.35 48.9414C152.04 50.4264 151.385 52.7632 151.385 55.9517C151.385 59.1402 152.04 61.5207 153.35 63.0931C154.661 64.6218 156.364 65.3862 158.461 65.3862Z" fill="#1E1E1E"/>
<path d="M123.837 72.7897C118.858 72.7897 114.599 71.8069 111.061 69.8414C107.524 67.8759 104.794 65.1241 102.872 61.5862C100.994 58.0046 100.055 53.7897 100.055 48.9414C100.055 44.0931 100.994 39.9 102.872 36.3621C104.794 32.8241 107.524 30.0724 111.061 28.1069C114.599 26.1414 118.858 25.1586 123.837 25.1586C126.895 25.1586 129.821 25.6391 132.617 26.6C135.412 27.5609 137.705 28.8713 139.496 30.531L136.351 38.5897C134.386 37.0609 132.398 35.9471 130.389 35.2483C128.424 34.5057 126.349 34.1345 124.165 34.1345C119.797 34.1345 116.478 35.423 114.206 38C111.935 40.5333 110.799 44.1805 110.799 48.9414C110.799 53.7023 111.935 57.3713 114.206 59.9483C116.478 62.5253 119.797 63.8138 124.165 63.8138C126.349 63.8138 128.424 63.4644 130.389 62.7655C132.398 62.023 134.386 60.8874 136.351 59.3586L139.496 67.4172C137.705 69.077 135.412 70.3874 132.617 71.3483C129.821 72.3092 126.895 72.7897 123.837 72.7897Z" fill="#1E1E1E"/>
<path d="M63.8092 72.069V25.8793H73.9643V72.069H63.8092Z" fill="#4880FF"/>
<path d="M9.17242 72.069L30.4 25.8793H38.5897L59.8173 72.069H49.5966L44.0931 59.2276L48.1552 62.0448H20.8345L24.8966 59.2276L19.4586 72.069H9.17242ZM34.3966 36.6897L26.0104 56.6724L24.2414 54.1172H44.7483L42.9793 56.6724L34.5276 36.6897H34.3966Z" fill="#4880FF"/>
</svg>
