<svg width="20" height="21" viewBox="0 0 20 21" fill="none" xmlns="http://www.w3.org/2000/svg">
<g clip-path="url(#clip0_32_229)">
<path d="M4.16667 3.5H7.5L10 6.125H15.8333C16.2754 6.125 16.6993 6.30937 17.0118 6.63756C17.3244 6.96575 17.5 7.41087 17.5 7.875V14.875C17.5 15.3391 17.3244 15.7842 17.0118 16.1124C16.6993 16.4406 16.2754 16.625 15.8333 16.625H4.16667C3.72464 16.625 3.30072 16.4406 2.98816 16.1124C2.67559 15.7842 2.5 15.3391 2.5 14.875V5.25C2.5 4.78587 2.67559 4.34075 2.98816 4.01256C3.30072 3.68437 3.72464 3.5 4.16667 3.5Z" stroke="white" stroke-width="2" stroke-linecap="round" stroke-linejoin="round"/>
</g>
<defs>
<clipPath id="clip0_32_229">
<rect width="20" height="21" fill="white"/>
</clipPath>
</defs>
</svg>
