<svg width="20" height="20" viewBox="0 0 20 20" fill="none" xmlns="http://www.w3.org/2000/svg">
<g clip-path="url(#clip0_32_506)">
<path d="M4.16666 3.33331H7.49999C7.72101 3.33331 7.93297 3.42111 8.08925 3.57739C8.24553 3.73367 8.33333 3.94563 8.33333 4.16665V9.16665C8.33333 9.38766 8.24553 9.59962 8.08925 9.7559C7.93297 9.91218 7.72101 9.99998 7.49999 9.99998H4.16666C3.94565 9.99998 3.73369 9.91218 3.57741 9.7559C3.42113 9.59962 3.33333 9.38766 3.33333 9.16665V4.16665C3.33333 3.94563 3.42113 3.73367 3.57741 3.57739C3.73369 3.42111 3.94565 3.33331 4.16666 3.33331Z" stroke="white" stroke-width="1.5" stroke-linecap="round" stroke-linejoin="round"/>
<path d="M4.16666 13.3333H7.49999C7.72101 13.3333 7.93297 13.4211 8.08925 13.5774C8.24553 13.7337 8.33333 13.9456 8.33333 14.1666V15.8333C8.33333 16.0543 8.24553 16.2663 8.08925 16.4226C7.93297 16.5788 7.72101 16.6666 7.49999 16.6666H4.16666C3.94565 16.6666 3.73369 16.5788 3.57741 16.4226C3.42113 16.2663 3.33333 16.0543 3.33333 15.8333V14.1666C3.33333 13.9456 3.42113 13.7337 3.57741 13.5774C3.73369 13.4211 3.94565 13.3333 4.16666 13.3333Z" stroke="white" stroke-width="1.5" stroke-linecap="round" stroke-linejoin="round"/>
<path d="M12.5 10H15.8333C16.0544 10 16.2663 10.0878 16.4226 10.2441C16.5789 10.4004 16.6667 10.6123 16.6667 10.8333V15.8333C16.6667 16.0543 16.5789 16.2663 16.4226 16.4226C16.2663 16.5789 16.0544 16.6667 15.8333 16.6667H12.5C12.279 16.6667 12.067 16.5789 11.9107 16.4226C11.7545 16.2663 11.6667 16.0543 11.6667 15.8333V10.8333C11.6667 10.6123 11.7545 10.4004 11.9107 10.2441C12.067 10.0878 12.279 10 12.5 10Z" stroke="white" stroke-width="1.5" stroke-linecap="round" stroke-linejoin="round"/>
<path d="M12.5 3.33331H15.8333C16.0544 3.33331 16.2663 3.42111 16.4226 3.57739C16.5789 3.73367 16.6667 3.94563 16.6667 4.16665V5.83331C16.6667 6.05433 16.5789 6.26629 16.4226 6.42257C16.2663 6.57885 16.0544 6.66665 15.8333 6.66665H12.5C12.279 6.66665 12.067 6.57885 11.9107 6.42257C11.7545 6.26629 11.6667 6.05433 11.6667 5.83331V4.16665C11.6667 3.94563 11.7545 3.73367 11.9107 3.57739C12.067 3.42111 12.279 3.33331 12.5 3.33331Z" stroke="white" stroke-width="1.5" stroke-linecap="round" stroke-linejoin="round"/>
</g>
<defs>
<clipPath id="clip0_32_506">
<rect width="20" height="20" fill="white"/>
</clipPath>
</defs>
</svg>

