<svg width="20" height="20" viewBox="0 0 20 20" fill="none" xmlns="http://www.w3.org/2000/svg">
<g clip-path="url(#clip0_32_480)">
<path d="M11.6667 2.5V5.83333C11.6667 6.05435 11.7545 6.26631 11.9107 6.42259C12.067 6.57887 12.279 6.66667 12.5 6.66667H15.8333" stroke="#202224" stroke-width="1.5" stroke-linecap="round" stroke-linejoin="round"/>
<path d="M15.8333 10V15.8333C15.8727 16.1478 15.8104 16.4667 15.6554 16.7431C15.5004 17.0196 15.2609 17.2392 14.972 17.3696C14.6832 17.5001 14.3601 17.5346 14.0502 17.468C13.7403 17.4015 13.4599 17.2375 13.25 17C13.1214 16.8355 12.957 16.7024 12.7693 16.6109C12.5816 16.5193 12.3755 16.4718 12.1667 16.4718C11.9578 16.4718 11.7517 16.5193 11.564 16.6109C11.3763 16.7024 11.2119 16.8355 11.0833 17C10.9547 17.1645 10.7903 17.2976 10.6026 17.3891C10.4149 17.4807 10.2088 17.5282 9.99999 17.5282C9.79116 17.5282 9.58507 17.4807 9.39737 17.3891C9.20966 17.2976 9.04527 17.1645 8.91666 17C8.78806 16.8355 8.62366 16.7024 8.43596 16.6109C8.24825 16.5193 8.04216 16.4718 7.83333 16.4718C7.62449 16.4718 7.41841 16.5193 7.2307 16.6109C7.04299 16.7024 6.8786 16.8355 6.74999 17C6.54011 17.2375 6.25967 17.4015 5.94977 17.468C5.63988 17.5346 5.31683 17.5001 5.02797 17.3696C4.73911 17.2392 4.49962 17.0196 4.34463 16.7431C4.18963 16.4667 4.12726 16.1478 4.16666 15.8333V4.16667C4.16666 3.72464 4.34226 3.30072 4.65482 2.98816C4.96738 2.67559 5.3913 2.5 5.83333 2.5H11.6667L15.8333 6.66667V10.2083" stroke="#202224" stroke-width="1.5" stroke-linecap="round" stroke-linejoin="round"/>
</g>
<defs>
<clipPath id="clip0_32_480">
<rect width="20" height="20" fill="white"/>
</clipPath>
</defs>
</svg>
