<svg width="40" height="40" viewBox="0 0 40 40" fill="none" xmlns="http://www.w3.org/2000/svg">
<rect width="40" height="40" rx="20" fill="#4880FF"/>
<path d="M10.994 25V15.13H14.858C15.978 15.13 16.93 15.326 17.714 15.718C18.5073 16.1007 19.1093 16.6607 19.52 17.398C19.94 18.126 20.15 19.0127 20.15 20.058C20.15 21.1033 19.94 21.9947 19.52 22.732C19.1093 23.4693 18.5073 24.034 17.714 24.426C16.93 24.8087 15.978 25 14.858 25H10.994ZM13.164 23.222H14.732C15.7867 23.222 16.5753 22.9607 17.098 22.438C17.6207 21.9153 17.882 21.122 17.882 20.058C17.882 18.994 17.616 18.2053 17.084 17.692C16.5613 17.1693 15.7773 16.908 14.732 16.908H13.164V23.222ZM25.3638 25.154C24.8505 25.154 24.3511 25.1073 23.8658 25.014C23.3898 24.93 22.9465 24.8087 22.5358 24.65C22.1251 24.482 21.7658 24.286 21.4578 24.062L22.0878 22.354C22.3865 22.5593 22.7085 22.7367 23.0538 22.886C23.3991 23.0353 23.7678 23.152 24.1598 23.236C24.5518 23.3107 24.9531 23.348 25.3638 23.348C26.0451 23.348 26.5305 23.2453 26.8198 23.04C27.1091 22.8253 27.2538 22.5593 27.2538 22.242C27.2538 22.0647 27.2071 21.9107 27.1138 21.78C27.0298 21.6493 26.8851 21.5373 26.6798 21.444C26.4838 21.3413 26.2131 21.2573 25.8678 21.192L24.2858 20.856C23.3898 20.6693 22.7225 20.352 22.2838 19.904C21.8545 19.4467 21.6398 18.8493 21.6398 18.112C21.6398 17.4773 21.8078 16.9267 22.1438 16.46C22.4891 15.9933 22.9605 15.6293 23.5578 15.368C24.1645 15.1067 24.8598 14.976 25.6438 14.976C26.1011 14.976 26.5398 15.0227 26.9598 15.116C27.3798 15.2 27.7671 15.326 28.1218 15.494C28.4765 15.662 28.7845 15.8627 29.0458 16.096L28.4158 17.692C28.0425 17.3933 27.6225 17.1693 27.1558 17.02C26.6891 16.8613 26.1805 16.782 25.6298 16.782C25.2378 16.782 24.9018 16.8333 24.6218 16.936C24.3511 17.0387 24.1411 17.1833 23.9918 17.37C23.8518 17.5567 23.7818 17.7713 23.7818 18.014C23.7818 18.2847 23.8798 18.504 24.0758 18.672C24.2718 18.84 24.6125 18.9753 25.0978 19.078L26.6798 19.414C27.5945 19.61 28.2758 19.9273 28.7238 20.366C29.1718 20.7953 29.3958 21.3647 29.3958 22.074C29.3958 22.69 29.2278 23.2313 28.8918 23.698C28.5651 24.1553 28.0985 24.5147 27.4918 24.776C26.8945 25.028 26.1851 25.154 25.3638 25.154Z" fill="white"/>
</svg>
